<?xml version="1.0" encoding="iso-8859-1"?>
<!-- Generator: Adobe Illustrator 16.0.0, SVG Export Plug-In . SVG Version: 6.00 Build 0)  -->
<!DOCTYPE svg PUBLIC "-//W3C//DTD SVG 1.1//EN" "http://www.w3.org/Graphics/SVG/1.1/DTD/svg11.dtd">
<svg version="1.1" id="Capa_1" xmlns="http://www.w3.org/2000/svg" xmlns:xlink="http://www.w3.org/1999/xlink" x="0px" y="0px"
	 width="891.024px" height="891.024px" viewBox="0 0 891.024 891.024" style="enable-background:new 0 0 891.024 891.024;"
	 xml:space="preserve">
<g>
	<path d="M2.8,180.875c46.6,134,144.7,286.2,282.9,424.399c138.2,138.2,290.4,236.301,424.4,282.9c18.2,6.3,38.3,1.8,52-11.8
		l92.7-92.7l21.6-21.6c19.5-19.5,19.5-51.2,0-70.7l-143.5-143.4c-19.5-19.5-51.2-19.5-70.7,0l-38.899,38.9
		c-20.2,20.2-52.4,22.2-75,4.6c-44.7-34.8-89-73.899-131.9-116.8c-42.9-42.9-82-87.2-116.8-131.9c-17.601-22.6-15.601-54.7,4.6-75
		l38.9-38.9c19.5-19.5,19.5-51.2,0-70.7l-143.5-143.5c-19.5-19.5-51.2-19.5-70.7,0l-21.6,21.6l-92.7,92.7
		C1,142.575-3.5,162.675,2.8,180.875z"/>
</g>
<g>
</g>
<g>
</g>
<g>
</g>
<g>
</g>
<g>
</g>
<g>
</g>
<g>
</g>
<g>
</g>
<g>
</g>
<g>
</g>
<g>
</g>
<g>
</g>
<g>
</g>
<g>
</g>
<g>
</g>
</svg>
